# xmcd CD database file
#
# Track frame offsets:
#	150
#	24750
#	43125
#	59175
#	82200
#	102975
#	128700
#	145725
#	153450
#	173625
#	191325
#	213525
#	232950
#	247800
#	271950
#
# Disc length: 4065 seconds
#
# Revision: 2
# Processed by: cddbd v1.5.1PL2 Copyright (c) Steve Scherf et al.
# Submitted via: CDex 1.51
#
DISCID=cd0fdf0f
DTITLE=ゆず - Going[2001〜2005]
DYEAR=2005
DGENRE=JPop
TTITLE0=栄光の架橋
TTITLE1=アゲイン2
TTITLE2=3カウント
TTITLE3=スミレ
TTITLE4=桜木町
TTITLE5=ユーモラス
TTITLE6=シュミのハバ
TTITLE7=3番線
TTITLE8=青
TTITLE9=歩行者優先
TTITLE10=夢の地図
TTITLE11=呼吸
TTITLE12=またあえる日まで
TTITLE13=1
TTITLE14=GOING HOME
EXTD=YEAR: 2005
EXTT0=
EXTT1=
EXTT2=
EXTT3=
EXTT4=
EXTT5=
EXTT6=
EXTT7=
EXTT8=
EXTT9=
EXTT10=
EXTT11=
EXTT12=
EXTT13=
EXTT14=
PLAYORDER=
